# xmcd
#
# Track frame offsets:
#       150
#       18782
#       42400
#       60150
#       79200
#       101015
#       119810
#       141160
#       159651
#       180051
#       197751
#       219996
#
# Disc length: 3256 seconds
#
# Revision: 0
# Processed by: cddbd v1.5.1PL0 Copyright (c) Steve Scherf et al.
# Submitted via: WaveLab 4.01
#
DISCID=9b0cb60c
DTITLE=Весна на улице Карла Юхана - Прости-прощай...
DYEAR=2005
DGENRE=Pop
TTITLE0=Метели
TTITLE1=Дождик
TTITLE2=Смотри
TTITLE3=Прости-прощай...
TTITLE4=Милый
TTITLE5=Зависаю в высоте
TTITLE6=Наступит новый день
TTITLE7=Рим-Москва-Кассиопея
TTITLE8=Радуга-дуга
TTITLE9=Все хорошо
TTITLE10=Не надо говорить
TTITLE11=Не спеши
EXTD=
EXTT0=
EXTT1=
EXTT2=
EXTT3=
EXTT4=
EXTT5=
EXTT6=
EXTT7=
EXTT8=
EXTT9=
EXTT10=
EXTT11=
PLAYORDER=
